<?xml version="1.0" encoding="UTF-8"?>
<svg width="215px" height="86px" viewBox="0 0 215 86" version="1.1" xmlns="http://www.w3.org/2000/svg" xmlns:xlink="http://www.w3.org/1999/xlink">
    <!-- Generator: Sketch 42 (36781) - http://www.bohemiancoding.com/sketch -->
    <title>logo_white</title>
    <desc>Created with Sketch.</desc>
    <defs></defs>
    <g id="Page-1" stroke="none" stroke-width="1" fill="none" fill-rule="evenodd">
        <g id="logo_white" fill="#FFFFFF">
            <path d="M26.66,28.122 L36.12,28.122 C37.6680077,28.122 39.0941601,28.2653319 40.3985,28.552 C41.7028399,28.8386681 42.8279953,29.3259966 43.774,30.014 C44.7200047,30.7020034 45.4653306,31.5978278 46.01,32.7015 C46.5546694,33.8051722 46.827,35.1739918 46.827,36.808 C46.827,38.3560077 46.5546694,39.7033276 46.01,40.85 C45.4653306,41.9966724 44.7128381,42.9498295 43.7525,43.7095 C42.7921619,44.4691705 41.6598399,45.0281649 40.3555,45.3865 C39.0511601,45.7448351 37.6393409,45.924 36.12,45.924 L31.648,45.924 L31.648,56.244 L26.66,56.244 L26.66,28.122 Z M35.733,41.925 C39.8610206,41.925 41.925,40.2193504 41.925,36.808 C41.925,35.0306578 41.4090052,33.80517 40.377,33.1315 C39.3449948,32.45783 37.7970103,32.121 35.733,32.121 L31.648,32.121 L31.648,41.925 L35.733,41.925 Z M49.364,45.709 C49.364,43.9889914 49.6363306,42.4410069 50.181,41.065 C50.7256694,39.6889931 51.4494955,38.5280047 52.3525,37.582 C53.2555045,36.6359953 54.2946608,35.9050026 55.47,35.389 C56.6453392,34.8729974 57.8493272,34.615 59.082,34.615 C60.5153405,34.615 61.7766612,34.8586642 62.866,35.346 C63.9553388,35.8333358 64.8654963,36.5213289 65.5965,37.41 C66.3275037,38.2986711 66.8793315,39.3593272 67.252,40.592 C67.6246685,41.8246728 67.811,43.1719927 67.811,44.634 C67.811,45.6086715 67.739334,46.3826638 67.596,46.956 L54.18,46.956 C54.4093345,48.8766763 55.0758278,50.3529948 56.1795,51.385 C57.2831722,52.4170052 58.6949914,52.933 60.415,52.933 C61.3323379,52.933 62.1851627,52.7968347 62.9735,52.5245 C63.7618373,52.2521653 64.5429961,51.8723358 65.317,51.385 L66.994,54.481 C65.9906616,55.1403366 64.8726728,55.6849978 63.64,56.115 C62.4073272,56.5450021 61.1173401,56.76 59.77,56.76 C58.3079927,56.76 56.9463396,56.5091692 55.685,56.0075 C54.4236604,55.5058308 53.3200047,54.7820047 52.374,53.836 C51.4279953,52.8899953 50.689836,51.7361735 50.1595,50.3745 C49.629164,49.0128265 49.364,47.4576754 49.364,45.709 Z M63.511,43.817 C63.511,42.1256582 63.1598368,40.8070047 62.4575,39.861 C61.7551632,38.9149953 60.6730073,38.442 59.211,38.442 C57.9496604,38.442 56.8460047,38.8934955 55.9,39.7965 C54.9539953,40.6995045 54.3663345,42.0396578 54.137,43.817 L63.511,43.817 Z M72.541,35.131 L76.626,35.131 L76.97,38.872 L77.142,38.872 C77.8873371,37.4959931 78.790328,36.4425037 79.851,35.7115 C80.911672,34.9804963 82.0009944,34.615 83.119,34.615 C84.1223383,34.615 84.924997,34.7583319 85.527,35.045 L84.667,39.345 C84.2943315,39.2303328 83.9503349,39.1443336 83.635,39.087 C83.3196651,39.0296664 82.932669,39.001 82.474,39.001 C81.6426625,39.001 80.7683379,39.3234968 79.851,39.9685 C78.9336621,40.6135032 78.1453366,41.7386586 77.486,43.344 L77.486,56.244 L72.541,56.244 L72.541,35.131 Z M86.774,45.709 C86.774,43.9603246 87.0606638,42.3980069 87.634,41.022 C88.2073362,39.6459931 88.9813285,38.4850047 89.956,37.539 C90.9306715,36.5929953 92.055827,35.8691692 93.3315,35.3675 C94.607173,34.8658308 95.9473263,34.615 97.352,34.615 C98.7280069,34.615 99.9248282,34.8514976 100.9425,35.3245 C101.960172,35.7975024 102.82733,36.3779966 103.544,37.066 L101.179,40.205 C100.605664,39.7176642 100.032336,39.3378347 99.459,39.0655 C98.8856638,38.7931653 98.2693366,38.657 97.61,38.657 C95.8899914,38.657 94.499672,39.294827 93.439,40.5705 C92.378328,41.846173 91.848,43.5589892 91.848,45.709 C91.848,47.8303439 92.3711614,49.528827 93.4175,50.8045 C94.4638386,52.080173 95.818325,52.718 97.481,52.718 C98.3410043,52.718 99.1364963,52.5388351 99.8675,52.1805 C100.598504,51.8221649 101.250664,51.3993358 101.824,50.912 L103.888,54.051 C102.884662,54.9396711 101.781006,55.613331 100.577,56.072 C99.372994,56.530669 98.169006,56.76 96.965,56.76 C95.5316595,56.76 94.1915062,56.5163358 92.9445,56.029 C91.6974938,55.5416642 90.6153379,54.8250047 89.698,53.879 C88.7806621,52.9329953 88.0640026,51.7720069 87.548,50.396 C87.0319974,49.0199931 86.774,47.4576754 86.774,45.709 Z M105.608,45.709 C105.608,43.9889914 105.880331,42.4410069 106.425,41.065 C106.969669,39.6889931 107.693495,38.5280047 108.5965,37.582 C109.499505,36.6359953 110.538661,35.9050026 111.714,35.389 C112.889339,34.8729974 114.093327,34.615 115.326,34.615 C116.75934,34.615 118.020661,34.8586642 119.11,35.346 C120.199339,35.8333358 121.109496,36.5213289 121.8405,37.41 C122.571504,38.2986711 123.123331,39.3593272 123.496,40.592 C123.868669,41.8246728 124.055,43.1719927 124.055,44.634 C124.055,45.6086715 123.983334,46.3826638 123.84,46.956 L110.424,46.956 C110.653334,48.8766763 111.319828,50.3529948 112.4235,51.385 C113.527172,52.4170052 114.938991,52.933 116.659,52.933 C117.576338,52.933 118.429163,52.7968347 119.2175,52.5245 C120.005837,52.2521653 120.786996,51.8723358 121.561,51.385 L123.238,54.481 C122.234662,55.1403366 121.116673,55.6849978 119.884,56.115 C118.651327,56.5450021 117.36134,56.76 116.014,56.76 C114.551993,56.76 113.19034,56.5091692 111.929,56.0075 C110.66766,55.5058308 109.564005,54.7820047 108.618,53.836 C107.671995,52.8899953 106.933836,51.7361735 106.4035,50.3745 C105.873164,49.0128265 105.608,47.4576754 105.608,45.709 Z M119.755,43.817 C119.755,42.1256582 119.403837,40.8070047 118.7015,39.861 C117.999163,38.9149953 116.917007,38.442 115.455,38.442 C114.19366,38.442 113.090005,38.8934955 112.144,39.7965 C111.197995,40.6995045 110.610334,42.0396578 110.381,43.817 L119.755,43.817 Z M131.279,31.433 C130.390329,31.433 129.659336,31.1750026 129.086,30.659 C128.512664,30.1429974 128.226,29.4693375 128.226,28.638 C128.226,27.8066625 128.512664,27.125836 129.086,26.5955 C129.659336,26.065164 130.390329,25.8 131.279,25.8 C132.167671,25.8 132.898664,26.065164 133.472,26.5955 C134.045336,27.125836 134.332,27.8066625 134.332,28.638 C134.332,29.4693375 134.045336,30.1429974 133.472,30.659 C132.898664,31.1750026 132.167671,31.433 131.279,31.433 Z M128.785,35.131 L133.73,35.131 L133.73,56.244 L128.785,56.244 L128.785,35.131 Z M137.428,35.131 L142.459,35.131 L145.813,46.096 C146.099668,47.1280052 146.393498,48.174328 146.6945,49.235 C146.995502,50.295672 147.289332,51.3706612 147.576,52.46 L147.748,52.46 C148.063335,51.3706612 148.364332,50.295672 148.651,49.235 C148.937668,48.174328 149.238665,47.1280052 149.554,46.096 L152.908,35.131 L157.681,35.131 L150.5,56.244 L144.781,56.244 L137.428,35.131 Z M159.573,50.568 C159.573,48.303322 160.56199,46.5546728 162.54,45.322 C164.51801,44.0893272 167.671312,43.2293358 172,42.742 C172,42.1973306 171.928334,41.6741692 171.785,41.1725 C171.641666,40.6708308 171.419502,40.2265019 171.1185,39.8395 C170.817498,39.4524981 170.430502,39.1515011 169.9575,38.9365 C169.484498,38.7214989 168.88967,38.614 168.173,38.614 C167.112328,38.614 166.087505,38.8146647 165.0985,39.216 C164.109495,39.6173353 163.156338,40.1046638 162.239,40.678 L160.433,37.367 C161.608339,36.6216629 162.919826,35.9766694 164.3675,35.432 C165.815174,34.8873306 167.384658,34.615 169.076,34.615 C171.742013,34.615 173.719994,35.3961589 175.01,36.9585 C176.300006,38.5208411 176.945,40.7783186 176.945,43.731 L176.945,56.244 L172.903,56.244 L172.516,53.922 L172.387,53.922 C171.440995,54.7246707 170.430505,55.3983306 169.3555,55.943 C168.280495,56.4876694 167.11234,56.76 165.851,56.76 C163.987657,56.76 162.475506,56.193839 161.3145,55.0615 C160.153494,53.929161 159.573,52.4313426 159.573,50.568 Z M164.389,50.181 C164.389,51.1270047 164.668497,51.8149978 165.2275,52.245 C165.786503,52.6750021 166.510329,52.89 167.399,52.89 C168.259004,52.89 169.04733,52.6893353 169.764,52.288 C170.48067,51.8866647 171.225996,51.3133371 172,50.568 L172,45.838 C170.566659,46.0100009 169.362672,46.2393319 168.388,46.526 C167.413328,46.8126681 166.63217,47.1351649 166.0445,47.4935 C165.45683,47.8518351 165.034001,48.260331 164.776,48.719 C164.517999,49.177669 164.389,49.6649974 164.389,50.181 Z M182.965,25.886 L187.91,25.886 L187.91,51.084 C187.91,51.686003 188.024666,52.1088321 188.254,52.3525 C188.483334,52.5961679 188.726999,52.718 188.985,52.718 L189.3075,52.718 C189.407834,52.718 189.558332,52.6893336 189.759,52.632 L190.404,56.33 C189.744663,56.6166681 188.870339,56.76 187.781,56.76 C186.003658,56.76 184.75667,56.229672 184.04,55.169 C183.32333,54.108328 182.965,52.6606758 182.965,50.826 L182.965,25.886 Z" id="title"></path>
        </g>
    </g>
</svg>