<?xml version="1.0" encoding="UTF-8"?>
<svg width="55px" height="86px" viewBox="0 0 55 86" version="1.1" xmlns="http://www.w3.org/2000/svg" xmlns:xlink="http://www.w3.org/1999/xlink">
    <!-- Generator: Sketch 42 (36781) - http://www.bohemiancoding.com/sketch -->
    <title>p_white</title>
    <desc>Created with Sketch.</desc>
    <defs></defs>
    <g id="Page-1" stroke="none" stroke-width="1" fill="none" fill-rule="evenodd">
        <g id="p_white" fill="#FFFFFF">
            <path d="M18,28 L27.46,28 C29.0080077,28 30.4341601,28.1433319 31.7385,28.43 C33.0428399,28.7166681 34.1679953,29.2039966 35.114,29.892 C36.0600047,30.5800034 36.8053306,31.4758278 37.35,32.5795 C37.8946694,33.6831722 38.167,35.0519918 38.167,36.686 C38.167,38.2340077 37.8946694,39.5813276 37.35,40.728 C36.8053306,41.8746724 36.0528381,42.8278295 35.0925,43.5875 C34.1321619,44.3471705 32.9998399,44.9061649 31.6955,45.2645 C30.3911601,45.6228351 28.9793409,45.802 27.46,45.802 L22.988,45.802 L22.988,56.122 L18,56.122 L18,28 Z M27.073,41.803 C31.2010206,41.803 33.265,40.0973504 33.265,36.686 C33.265,34.9086578 32.7490052,33.68317 31.717,33.0095 C30.6849948,32.33583 29.1370103,31.999 27.073,31.999 L22.988,31.999 L22.988,41.803 L27.073,41.803 Z" id="title"></path>
        </g>
    </g>
</svg>